HIERARCHY
ROOT hips
{
  OFFSET 0 11.86390953 0.3628582958
  CHANNELS 6 Xposition Yposition Zposition Yrotation Xrotation Zrotation
  JOINT spine
  {
    OFFSET 0 0.05383551117999996 0
    CHANNELS 3 Yrotation Xrotation Zrotation
    JOINT chest
    {
      OFFSET 0 0.6394558760401424 0
      CHANNELS 3 Yrotation Xrotation Zrotation
      JOINT neck
      {
        OFFSET 0 2.720089088562982 0
        CHANNELS 3 Yrotation Xrotation Zrotation
        JOINT head
        {
          OFFSET 0 0.37880844870545777 0
          CHANNELS 3 Yrotation Xrotation Zrotation
          JOINT rightEye
          {
            OFFSET -0.42867780714 0.7547055649100001 0.7381831347
            CHANNELS 3 Yrotation Xrotation Zrotation
            End Site
            {
              OFFSET -0.42867780714 0.7547055649100001 0.7381831347
            }
          }
          JOINT leftEye
          {
            OFFSET 0.428676479 0.7547055559999993 0.7381844503
            CHANNELS 3 Yrotation Xrotation Zrotation
            End Site
            {
              OFFSET 0.428676479 0.7547055559999993 0.7381844503
            }
          }
          JOINT jaw
          {
            OFFSET -0.18933892286100001 1.5626303011000007 1.137441874206
            CHANNELS 3 Yrotation Xrotation Zrotation
            End Site
            {
              OFFSET -0.18933892286100001 1.5626303011000007 1.137441874206
            }
          }
        }
      }
      JOINT rightShoulder
      {
        OFFSET -0.6795351508 2.0665205 0
        CHANNELS 3 Yrotation Xrotation Zrotation
        JOINT rightUpperArm
        {
          OFFSET -0.7287400483531672 0 0
          CHANNELS 3 Yrotation Xrotation Zrotation
          JOINT rightLowerArm
          {
            OFFSET -1.9872982039174532 0 0
            CHANNELS 3 Yrotation Xrotation Zrotation
            JOINT rightHand
            {
              OFFSET -2.6451847532219275 0 0
              CHANNELS 3 Yrotation Xrotation Zrotation
              JOINT rightLittleProximal
              {
                OFFSET -0.8008804099999995 -0.09592044000000044 -0.26183688629999996
                CHANNELS 3 Yrotation Xrotation Zrotation
                JOINT rightLittleIntermediate
                {
                  OFFSET -0.2473955153999997 -0.02541697026000067 0.002370178700999967
                  CHANNELS 3 Yrotation Xrotation Zrotation
                  JOINT rightLittleDistal
                  {
                    OFFSET -0.163687229200001 -0.015790700860001117 -0.0004274845300000635
                    CHANNELS 3 Yrotation Xrotation Zrotation
                    End Site
                    {
                      OFFSET -0.163687229200001 -0.015790700860001117 -0.0004274845300000635
                    }
                  }
                }
              }
              JOINT rightRingProximal
              {
                OFFSET -0.8393382799999985 -0.06223833561000025 -0.09213143500000005
                CHANNELS 3 Yrotation Xrotation Zrotation
                JOINT rightRingIntermediate
                {
                  OFFSET -0.3284497260000011 -0.03264224524000103 0.009408593183000052
                  CHANNELS 3 Yrotation Xrotation Zrotation
                  JOINT rightRingDistal
                  {
                    OFFSET -0.19447660429999902 -0.021730899850000318 0.003074347969000052
                    CHANNELS 3 Yrotation Xrotation Zrotation
                    End Site
                    {
                      OFFSET -0.19447660429999902 -0.021730899850000318 0.003074347969000052
                    }
                  }
                }
              }
              JOINT rightMiddleProximal
              {
                OFFSET -0.8473005199999989 -0.06735503500000095 0.10541820299999995
                CHANNELS 3 Yrotation Xrotation Zrotation
                JOINT rightMiddleIntermediate
                {
                  OFFSET -0.3450455799999995 -0.02481901642000084 0.019012570390000032
                  CHANNELS 3 Yrotation Xrotation Zrotation
                  JOINT rightMiddleDistal
                  {
                    OFFSET -0.23542332000000088 -0.025003910029999243 0.0075583457949999905
                    CHANNELS 3 Yrotation Xrotation Zrotation
                    End Site
                    {
                      OFFSET -0.23542332000000088 -0.025003910029999243 0.0075583457949999905
                    }
                  }
                }
              }
              JOINT rightIndexProximal
              {
                OFFSET -0.8008568281999987 -0.09897839600000169 0.29462796
                CHANNELS 3 Yrotation Xrotation Zrotation
                JOINT rightIndexIntermediate
                {
                  OFFSET -0.30524754480000016 -0.024634122809999992 0.02743375304999998
                  CHANNELS 3 Yrotation Xrotation Zrotation
                  JOINT rightIndexDistal
                  {
                    OFFSET -0.23067378950000017 -0.016876459159999913 0.008484125099999983
                    CHANNELS 3 Yrotation Xrotation Zrotation
                    End Site
                    {
                      OFFSET -0.23067378950000017 -0.016876459159999913 0.008484125099999983
                    }
                  }
                }
              }
              JOINT rightThumbProximal
              {
                OFFSET -0.25574064999999935 -0.12833189930000155 0.22385698609999993
                CHANNELS 3 Yrotation Xrotation Zrotation
                JOINT rightThumbIntermediate
                {
                  OFFSET -0.22791743260000086 -0.07103586192999978 0.27385039
                  CHANNELS 3 Yrotation Xrotation Zrotation
                  JOINT rightThumbDistal
                  {
                    OFFSET -0.13610267659999975 -0.03369390969999997 0.14246511509999996
                    CHANNELS 3 Yrotation Xrotation Zrotation
                    End Site
                    {
                      OFFSET -0.13610267659999975 -0.03369390969999997 0.14246511509999996
                    }
                  }
                }
              }
            }
          }
        }
      }
      JOINT leftShoulder
      {
        OFFSET 0.6795338396 2.0665205 0
        CHANNELS 3 Yrotation Xrotation Zrotation
        JOINT leftUpperArm
        {
          OFFSET 0.7287383950230443 0 0
          CHANNELS 3 Yrotation Xrotation Zrotation
          JOINT leftLowerArm
          {
            OFFSET 1.9872997282019604 0 0
            CHANNELS 3 Yrotation Xrotation Zrotation
            JOINT leftHand
            {
              OFFSET 2.6451820781302327 0 0
              CHANNELS 3 Yrotation Xrotation Zrotation
              JOINT leftLittleProximal
              {
                OFFSET 0.8008804099999995 -0.09592306899999814 -0.2618342639000001
                CHANNELS 3 Yrotation Xrotation Zrotation
                JOINT leftLittleIntermediate
                {
                  OFFSET 0.2473981400000007 -0.02542352681000093 0.0023609995859999455
                  CHANNELS 3 Yrotation Xrotation Zrotation
                  JOINT leftLittleDistal
                  {
                    OFFSET 0.1636846068000002 -0.015794634789999318 -0.00043272972159996703
                    CHANNELS 3 Yrotation Xrotation Zrotation
                    End Site
                    {
                      OFFSET 0.1636846068000002 -0.015794634789999318 -0.00043272972159996703
                    }
                  }
                }
              }
              JOINT leftRingProximal
              {
                OFFSET 0.8393409199999996 -0.062242267999998324 -0.0921281570000001
                CHANNELS 3 Yrotation Xrotation Zrotation
                JOINT leftRingIntermediate
                {
                  OFFSET 0.3284471036000003 -0.03264224524000103 0.009405970574000042
                  CHANNELS 3 Yrotation Xrotation Zrotation
                  JOINT leftRingDistal
                  {
                    OFFSET 0.1944779099999996 -0.021732211159998904 0.003073036670000001
                    CHANNELS 3 Yrotation Xrotation Zrotation
                    End Site
                    {
                      OFFSET 0.1944779099999996 -0.021732211159998904 0.003073036670000001
                    }
                  }
                }
              }
              JOINT leftMiddleProximal
              {
                OFFSET 0.8473005200000001 -0.06736028199999788 0.1054214809999999
                CHANNELS 3 Yrotation Xrotation Zrotation
                JOINT leftMiddleIntermediate
                {
                  OFFSET 0.3450455799999995 -0.024824261000000014 0.019013225990000007
                  CHANNELS 3 Yrotation Xrotation Zrotation
                  JOINT leftMiddleDistal
                  {
                    OFFSET 0.2354259489999998 -0.025005222000000327 0.0075590014499999705
                    CHANNELS 3 Yrotation Xrotation Zrotation
                    End Site
                    {
                      OFFSET 0.2354259489999998 -0.025005222000000327 0.0075590014499999705
                    }
                  }
                }
              }
              JOINT leftIndexProximal
              {
                OFFSET 0.8008594516999996 -0.09898495199999946 0.29463124239999994
                CHANNELS 3 Yrotation Xrotation Zrotation
                JOINT leftIndexIntermediate
                {
                  OFFSET 0.30524754480000016 -0.024632811499998963 0.02743047472
                  CHANNELS 3 Yrotation Xrotation Zrotation
                  JOINT leftIndexDistal
                  {
                    OFFSET 0.23067378950000017 -0.016876459159999913 0.008481502700000004
                    CHANNELS 3 Yrotation Xrotation Zrotation
                    End Site
                    {
                      OFFSET 0.23067378950000017 -0.016876459159999913 0.008481502700000004
                    }
                  }
                }
              }
              JOINT leftThumbProximal
              {
                OFFSET 0.25574326469999953 -0.12833321050000013 0.22385764169999997
                CHANNELS 3 Yrotation Xrotation Zrotation
                JOINT leftThumbIntermediate
                {
                  OFFSET 0.22804987480000094 -0.07138466829999968 0.273648441
                  CHANNELS 3 Yrotation Xrotation Zrotation
                  JOINT leftThumbDistal
                  {
                    OFFSET 0.13614857189999907 -0.033867001519998885 0.14238119169999996
                    CHANNELS 3 Yrotation Xrotation Zrotation
                    End Site
                    {
                      OFFSET 0.13614857189999907 -0.033867001519998885 0.14238119169999996
                    }
                  }
                }
              }
            }
          }
        }
      }
    }
  }
  JOINT rightUpperLeg
  {
    OFFSET -0.9749898906000001 -1.8495733739999998 0
    CHANNELS 3 Yrotation Xrotation Zrotation
    JOINT rightLowerLeg
    {
      OFFSET 0 -4.1566544686813165 0
      CHANNELS 3 Yrotation Xrotation Zrotation
      JOINT rightFoot
      {
        OFFSET 0.14539718599999998 -4.225553926 -0.3666210900000001
        CHANNELS 3 Yrotation Xrotation Zrotation
        JOINT rightToes
        {
          OFFSET 0.1706738473 -0.9584117400000015 1.0093348617
          CHANNELS 3 Yrotation Xrotation Zrotation
          End Site
          {
            OFFSET 0.1706738473 -0.9584117400000015 1.0093348617
          }
        }
      }
    }
  }
  JOINT leftUpperLeg
  {
    OFFSET 0.9749898906000001 -1.8495733739999998 0
    CHANNELS 3 Yrotation Xrotation Zrotation
    JOINT leftLowerLeg
    {
      OFFSET 0 -4.156653488267941 0
      CHANNELS 3 Yrotation Xrotation Zrotation
      JOINT leftFoot
      {
        OFFSET -0.14537357999999995 -4.225555399999999 -0.36661124279999996
        CHANNELS 3 Yrotation Xrotation Zrotation
        JOINT leftToes
        {
          OFFSET -0.17066467000000002 -0.9584157000000019 1.0093348617
          CHANNELS 3 Yrotation Xrotation Zrotation
          End Site
          {
            OFFSET -0.17066467000000002 -0.9584157000000019 1.0093348617
          }
        }
      }
    }
  }
}
MOTION
Frames: 4
Frame Time: 0.03333333333333333
0.002228695200756192 -0.26621417935302816 0.09570325911045074 3.5980141738754696 -2.722069012557462 0.38703551095782984 -0.8329078527843232 -0.5659994478613852 -3.7161431402069174 -0.13323185639035057 2.3033101835457224 2.99571177359921 0.27873764059926903 8.457743650845604 0.4169661242145171 1.26371713040025 -3.010219149523987 1.4358674018364093 0 0 0 0 0 0 0 0 0 -3.878077797643752 0.4396605500458213 8.765158048225105 20.15877108888448 7.923754976174938 72.62011399821058 13.41874634151397 0.02022554791915643 -0.1717664744168234 -12.58985644179996 -27.94738200683444 11.946972343047964 -1.7716193554428232 0.25672789976232063 17.056119000373666 -3.9512781397847663 1.3609550142313738 40.02492629353798 -3.174127850111847 0.7781497542726785 29.85421143202348 -2.3745983029594697 0.4699507789677903 22.551630883939634 -3.892001962215443 1.349400545124111 38.32664872028093 -2.825687948046821 0.6809299137609613 26.8367265647294 -2.4641376644880157 0.5073694109022717 22.751010885740065 -3.2037264510015913 0.9206997113825351 31.894453320292328 -3.3117112703429865 0.9274328056920003 31.672049968013255 -2.105167946811909 0.36618854448671767 19.562606747451365 -3.166466477390169 0.875030926488003 30.81163182093485 -2.295041356936039 0.43370317140170095 21.49950354515498 -13.075272056199404 -1.7608454070419557 -7.496301358949709 -16.370019159331914 4.841060627664952 -1.8779049634397569 -7.793788704597753 -0.7733663157817279 -2.6745475797417697 -26.978310343920413 6.2189075454624785 -6.547763336155063 3.8049157452989535 5.28954002117202 -79.55437968643373 -18.871309802475352 0.039755722898793894 0.23939650311050928 2.1319649265309297 -18.69251928756398 6.802236162163989 6.63766062354745 2.602439096991465 -26.43077032341114 -0.46199329376564663 1.3538616864818065 -37.01366218277482 2.779811787737902 0.7693990037094773 -27.100162648203217 2.613692409006791 0.5813581649237868 -25.06978691958876 3.7004116502652677 1.2339637269821653 -36.8598351262427 3.5565745561041364 1.1293230253321866 -35.209815336457915 2.4817137765432933 0.5214687169529805 -23.764150448239185 2.7372008530201706 0.6390534326000175 -26.323017027692632 2.6989533564415087 0.6214449933389905 -25.930004982481154 2.0941447517181757 0.3665404931869365 -19.90100637405816 2.9067056194963485 0.7253984354750098 -28.001335555653817 1.424710479048958 0.168539923285166 -13.433143459331049 12.667805991660016 -1.4667686250983825 6.999061895430813 15.380469034940592 4.139352842545666 2.1578281374636727 9.193302865412077 -0.07762999951669086 3.0942251374925345 -4.741282428361904 -1.6595402601236156 -4.3718756824360305 -9.835342272295508 19.49937041517804 0.6548263212732424 -19.48584610534889 -12.905951084295033 7.380230967874589 0.0000029498674728618434 -0.007142707028628059 -4.0255002020301784e-8 11.677151909075459 -3.3769916768105177 4.278860034692847 -4.387428872338255 18.815837293297342 -0.4523524113510226 0.7246470201390735 -12.932305696880396 -4.41701413712221 -0.0000033600415752473588 -0.00004284370692420146 -0.0000016642981608335213
0.001448324415832758 -0.2664516442578133 0.09762272238731384 3.5864122587861607 -2.708437726553961 0.38360082372914933 -0.8375853451491007 -0.565130263944923 -3.7164667198235017 -0.1344503498343016 2.295471566067686 3.0009464941495154 0.2890553809100115 8.441190307189984 0.40821810994258645 1.3077521827037628 -3.009084199577114 1.43356667037497 0 0 0 0 0 0 0 0 0 -3.8765328641710783 0.4398627669541265 8.763608832854535 20.168208640392542 7.927518501617711 72.61914371427501 13.432658123808242 0.020234429166663022 -0.17193761215599138 -12.571910119415595 -27.941842245799098 11.936726394907407 -1.7720720660429345 0.25686730639069544 17.060439551813086 -3.9514006797667083 1.3610427642287564 40.02637360831846 -3.1741099467200207 0.778141909503834 29.8540277865824 -2.3752439287790343 0.4702130030244475 22.5580414990617 -3.892301605493114 1.3496467136583783 38.33010633427299 -2.8257369389743117 0.680954034569927 26.837308506203886 -2.465252628594869 0.5078502644186645 22.761802003792173 -3.204178101912857 0.920979678573651 31.899257304227028 -3.311949256453155 0.9275821289232811 31.674723002296385 -2.106669178093816 0.3667261927568734 19.57732755025585 -3.1669865132272426 0.8753357592408827 30.81707112204223 -2.295364380799209 0.4338345495864979 21.502658970562585 -13.075274552293385 -1.7608483966614412 -7.496297971443269 -16.370026702052197 4.841059342419546 -1.8779302263572786 -7.793788704597753 -0.7733663157817279 -2.6745475797417697 -26.968480070848265 6.216038639641013 -6.545760756679181 3.7933769537265745 5.2903700090821015 -79.562611635585 -18.86612536235174 0.03972403988476916 0.23933305759650578 2.1455412529013325 -18.709924597214492 6.794193962703841 6.6378720790787975 2.6028202732260386 -26.434120008204044 -0.46177515414397624 1.3540370792133765 -37.01620784495506 2.7799579556658167 0.7694801195201709 -27.10169777546861 2.614199655329423 0.5816023567620237 -25.075070263154483 3.7006292091679844 1.234117655383337 -36.86230891122352 3.556670649990389 1.1293910202671553 -35.210883465744246 2.482358275714268 0.5217555434232851 -23.770655440187877 2.7375108275951314 0.6391946875657051 -26.326281046784406 2.6991071958948725 0.6215231715875075 -25.931595051194915 2.094974778985461 0.36683841292988356 -19.9091526507157 2.9068357960880236 0.7254674899534941 -28.002738167209873 1.4249190128354854 0.1685940447644386 -13.435166230156547 12.667805991660016 -1.4667686250983825 6.999061895430813 15.380469034940592 4.139352842545666 2.1578281374636727 9.193302865412077 -0.07762999951669086 3.0942251374925345 -4.743130445818993 -1.6633357056479545 -4.367849573902772 -9.834514408598473 19.499258105795892 0.6626068867847636 -19.473361813262734 -12.917896902766012 7.375368333343144 0.000007645975288926397 -0.007444104135936977 0.000001606685135333617 11.680160383144155 -3.381888473131784 4.2870134836990745 -4.379901545264832 18.817985811622226 -0.45070247864904955 0.7262754939019215 -12.943329437239063 -4.425112816360019 -0.0000024538328465172856 -0.00007638046557952153 0.000003873977075783441
-0.00027739317738451064 -0.2668579095166024 0.10174506902694702 3.565229194530397 -2.6844318470979434 0.3757086335169589 -0.8528924195905487 -0.5609508401475258 -3.7174146411797175 -0.13818841736518306 2.284686621466893 3.0177370872193903 0.30511940372007423 8.412434680627038 0.3963664095715755 1.3760885804184328 -3.005700089357448 1.4338322584753345 0 0 0 0 0 0 0 0 0 -3.8872847491299605 0.43789924340710873 8.761399250918641 20.181207365479022 7.949551246590226 72.60606503554459 13.465462308396376 0.020363737529072445 -0.17235499889510764 -12.582427307337484 -27.970553117985975 11.93486882152733 -1.7747552595321774 0.25766831422824277 17.086195128424293 -3.952526588453912 1.3619299787977353 40.039602843167884 -3.1746546943076486 0.7784444400897689 29.859618443279082 -2.377520963946703 0.4711498911315492 22.580675934789998 -3.8933121908781176 1.3504561023105615 38.34198150039343 -2.8264691658605683 0.6813239047773921 26.84485694856204 -2.468209943882893 0.5091193421986662 22.78901546128045 -3.2053262098505 0.9216775153051168 31.91171241466193 -3.3125775269149593 0.9279765173306951 31.681414773029267 -2.1098689846402237 0.3678785974155981 19.608577576937435 -3.168103931404404 0.8760026343412973 30.829080228383855 -2.296070283260674 0.4341041363481475 21.50969025342482 -13.075273720262064 -1.76085992805093 -7.496270425640436 -16.370257155887632 4.8410687675525805 -1.8779945664282311 -7.793788704597753 -0.7733663157817279 -2.6745475797417697 -26.948036048222683 6.209867174256456 -6.542706797277702 3.778556645190884 5.299530817407983 -79.57254073851445 -18.8554681361473 0.03966337525058095 0.23919877615134924 2.1634130807951095 -18.7223068022938 6.778645627494671 6.63884625155606 2.6046477413826317 -26.44970042924461 -0.4607542188363394 1.3548547959504953 -37.028398448908476 2.780649682570692 0.7698716100597857 -27.109041956690863 2.6154660737561386 0.5822010430465032 -25.088038573271035 3.7011614916986693 1.2345270281163543 -36.86851284510311 3.556907369003602 1.1295536957538193 -35.21359392469772 2.483134925809621 0.5220997352049115 -23.778525815768745 2.737896442752673 0.6393988588981181 -26.33028583502038 2.6992963773418817 0.6216145841075482 -25.93355934417632 2.095520007585929 0.3670561830366355 -19.914612679609327 2.9067610078346156 0.725411403201569 -28.001943690653253 1.4250780646181689 0.1686450312801739 -13.436564458018042 12.667805991660016 -1.4667686250983825 6.999061895430813 15.380469034940592 4.139352842545666 2.1578281374636727 9.193302865412077 -0.07762999951669086 3.0942251374925345 -4.7464829893623195 -1.6614943013514634 -4.357248215720361 -9.833375554418957 19.49197084265674 0.6787538210162074 -19.453767017727948 -12.94079947027223 7.365414310632343 -0.000010542644142630638 -0.011503334307792077 9.86541499541609e-7 11.68825442533469 -3.385327278202211 4.306532788355028 -4.3682552752628 18.817509563378383 -0.44809773227563543 0.729699755670685 -12.964295512075777 -4.442212679996849 8.345098662124052e-7 -0.000011596704187172299 -1.0783516390600003e-8
-0.001978707266971469 -0.2671506875317391 0.1062106117606163 3.5465319211536794 -2.665786883364449 0.3694257697134476 -0.8711446977161753 -0.5608244222296921 -3.7195100907164695 -0.1423770974503498 2.282407797487884 3.0407273989044192 0.3148458870142962 8.391109063232548 0.38949276326823534 1.4159959933502477 -2.9997400369636122 1.4380710250380462 0 0 0 0 0 0 0 0 0 -3.9065689653360187 0.4344762322643678 8.760781920686464 20.189152059106952 7.961781443350369 72.58581679472307 13.481130018856339 0.020391463496482683 -0.17254008018619083 -12.574177762977486 -27.9534903770196 11.937487830092476 -1.7787841049385855 0.2588909571924812 17.12483439540424 -3.9540591192298256 1.3631626428735577 40.05762718268014 -3.1756464084487006 0.7789927734967409 29.870099075574615 -2.3805113731258554 0.4724099970294772 22.610428720913657 -3.8946353953682213 1.3514893489122952 38.35752822543848 -2.8274180817346704 0.6818084556043417 26.8545376671368 -2.4715468816519 0.5105693740626004 22.81822664519368 -3.2067195283255336 0.9225484772174751 31.926705469699808 -3.3133108473455146 0.9284207513621533 31.689325586757928 -2.112733955374819 0.36893457716245576 19.636591174890707 -3.169189402999146 0.8766372224651843 30.84066524688666 -2.296878909401355 0.4344256714027418 21.517609414231668 -13.075262130889895 -1.7608394278029993 -7.496291597556225 -16.370706554262682 4.841121462616966 -1.8780258344818113 -7.793788704597753 -0.7733663157817279 -2.6745475797417697 -26.92763470491255 6.204655923605205 -6.543073444984577 3.765533029008852 5.301555662470925 -79.56046968403211 -18.85417972159807 0.03967940018555597 0.23920560628253923 2.165256112907782 -18.617739154791828 6.727778880688137 6.640272145794236 2.607282009453988 -26.472411428926126 -0.45925187591258976 1.356072938197027 -37.04635542061616 2.7816857216405095 0.770439100635912 -27.120093392723657 2.6165794491634475 0.5827062363444755 -25.09941488698779 3.701632196113128 1.2348881514948329 -36.873930443191696 3.557113831583825 1.1297023879881127 -35.216041906539935 2.482799741802027 0.5219404998108843 -23.77511432985193 2.737739028540062 0.6393230817690926 -26.328662227390698 2.6992292656949073 0.6215809647917626 -25.932873522462227 2.0941500843487657 0.3665520994099447 -19.901090694655945 2.9061287120930714 0.7250743490533557 -27.995321792411833 1.4247361911398222 0.1685541973750754 -13.43332650032778 12.667805991660016 -1.4667686250983825 6.999061895430813 15.380469034940592 4.139352842545666 2.1578281374636727 9.193302865412077 -0.07762999951669086 3.0942251374925345 -4.753328122685227 -1.648625872414517 -4.347323180489562 -9.835306851516007 19.478574582339277 0.6955932511180896 -19.43944232885942 -12.963245939867683 7.3553333201496285 0.000004682319856275267 -0.023781633812988482 -9.214937661213742e-7 11.69269710559165 -3.3760925864667963 4.322267599077704 -4.352394417478079 18.807743163869027 -0.4372909762693113 0.7336884253391517 -12.982564735356148 -4.463426560905131 -0.0000016248109383522155 -0.0000860328784717076 0.000003436342115167045
